<?xml version="1.0" encoding="utf-8"?>
<!-- Generator: Adobe Illustrator 16.0.0, SVG Export Plug-In . SVG Version: 6.00 Build 0)  -->
<!DOCTYPE svg PUBLIC "-//W3C//DTD SVG 1.1//EN" "http://www.w3.org/Graphics/SVG/1.1/DTD/svg11.dtd">
<svg version="1.1" xmlns="http://www.w3.org/2000/svg" xmlns:xlink="http://www.w3.org/1999/xlink" x="0px" y="0px" width="500px"
	 height="500px" viewBox="0 0 500 500" enable-background="new 0 0 500 500" xml:space="preserve">
<g id="BACKGROUND">
	<rect fill="#FFFFFF" width="500" height="500"/>
</g>
<g id="OBJECTS">
	<path fill="#DCEAF2" d="M418.68,478.14c0,11.945-72.368,21.629-161.642,21.629c-89.27,0-161.639-9.684-161.639-21.629
		c0-11.949,72.369-21.633,161.639-21.633C346.312,456.507,418.68,466.19,418.68,478.14z"/>
	<g>
		<path fill="#6D3D33" d="M116.437,458.687c0,0,0,15.213,4.278,20.918c4.278,5.705,15.689,5.705,20.919,2.377
			c5.229-3.328,7.606-28.051,7.606-28.051l-20.443-9.982L116.437,458.687z"/>
		<path fill="#6D3D33" d="M356.043,458.687c0,0,0,15.213,4.279,20.918c4.281,5.705,15.688,5.705,20.918,2.377
			s7.607-28.051,7.607-28.051l-20.441-9.982L356.043,458.687z"/>
		<path fill="#E2A567" d="M149.002,250.931c0,0-35.656-116.953-18.541-171.148c17.114-54.197,210.369-37.795,236.753-17.115
			c26.387,20.682-6.417,179.707-16.399,196.822c-9.985,17.113-151.182,14.975-153.32,14.262
			C195.354,273.036,149.002,250.931,149.002,250.931z"/>
		<path fill="#D78340" d="M139.858,208.071c-1.666-16.33,1.886-33.123,10.047-47.512c5.283-9.311,12.443-17.654,16.55-27.506
			c5.333-12.789,5.082-27,6.849-40.684c1.767-13.686,6.438-28.26,18.219-36.039c10.245-6.764,23.526-6.895,35.933-6.783
			c9.206,0.084,18.423,0.168,27.587,0.982c10.687,0.947,21.278,2.887,31.583,5.781c8.626,2.424,17.641,5.959,22.502,13.26
			c2.786,4.18,3.898,9.166,4.96,14.029c1.74,7.965,3.479,15.93,5.217,23.895c3.035,13.904,6.111,27.932,12.117,40.906
			c4.869,10.516,11.602,20.197,15.774,30.986c3.395,8.781,5.017,18.092,6.618,27.336c1.315,7.586,1.802,17.084-4.964,21.133
			c-2.396,1.434-5.289,1.834-8.095,2.076c-37.979,3.266-74.115-16.631-112.16-19.072c-20.864-1.338-41.645,2.617-62.403,5.045
			c-3.148,0.369-6.564,0.652-9.278-0.934c-2.214-1.291-3.562-3.613-5.581-5.176c-2.039-1.58-4.642-2.299-6.868-3.623
			c-2.225-1.324-4.188-3.715-3.6-6.176"/>
		<path fill="#D78340" d="M119.289,460.587c0,0,229.823,15.689,259.912,0c30.09-15.688,25.811-109.932,24.385-112.016
			s-15.834-59.844-15.834-59.844s-55.914-4.043-65.68-4.043s-135.886,9.939-145.087,11.627c-9.204,1.686-77.726,2.635-78.407,7.391
			C97.896,308.456,119.289,460.587,119.289,460.587z"/>
		<path fill="#D16E32" d="M128.414,342.399c3.208,5.703,9.382,9.199,15.702,10.896c6.32,1.701,12.932,1.871,19.44,2.568
			c4.417,0.473,8.974,1.252,12.636,3.764c3.664,2.514,6.181,7.199,4.9,11.451c-0.762,2.535-2.734,4.605-3.293,7.193
			c-0.594,2.75,0.504,5.551,1.582,8.148c1.668,4.027,3.38,8.127,6.208,11.443c2.827,3.316,7.003,5.785,11.351,5.463
			c6.957-0.512,11.356-7.367,15.477-12.998c6.003-8.205,14.422-15.553,24.542-16.523c3.333-0.318,6.732,0.066,10.019-0.582
			c3.563-0.705,6.816-2.596,10.395-3.209c5.434-0.932,10.912,1.172,15.834,3.66c7.45,3.766,14.401,8.508,22.035,11.889
			c7.635,3.381,16.289,5.355,24.356,3.205c2.693-0.717,5.349-1.945,7.168-4.057c4.258-4.945,2.555-12.549,4.584-18.752
			c2.118-6.477,8.176-10.883,14.417-13.619c6.24-2.736,12.993-4.266,19.025-7.436c6.031-3.168,11.518-8.566,12.227-15.34
			c0.654-6.254-3.379-12.697-9.289-14.84c-3.932-1.426-8.256-1.053-12.421-0.672c-68.237,6.23-136.732,9.645-205.251,10.221
			c-5.168,0.045-14.152-1.607-18.977,1.008C125.269,328.437,125.557,337.317,128.414,342.399z"/>
		<path fill="#D78340" d="M426.316,271.942c-27.551-10.246-97.886-24.607-97.886-24.607s-14.116,58.906-11.082,58.35
			c3.033-0.557,68.159,19.818,69.114,18.426C387.416,322.718,426.316,271.942,426.316,271.942z"/>
		<path fill="#D16E32" d="M343.707,257.581c5.361,6.027,10.727,12.051,16.088,18.078c2.734,3.072,5.514,6.213,7.143,9.988
			c0.926,2.152,1.451,4.449,1.975,6.732c0.617,2.711,1.098,5.949-0.859,7.92c-1.781,1.797-4.711,1.6-7.179,1.047
			c-4.91-1.098-9.573-3.098-14.061-5.375c-2.767-1.402-5.51-2.938-7.778-5.055c-2.976-2.773-4.989-6.402-6.954-9.967
			c-2.552-4.629-5.176-9.547-5.032-14.832c0.144-5.283,4.216-10.848,9.496-10.59"/>
		<path fill="#D78340" d="M73.684,271.942c27.549-10.246,94.233-24.607,94.233-24.607s17.767,58.906,14.733,58.35
			s-68.159,19.818-69.112,18.426C112.584,322.718,73.684,271.942,73.684,271.942z"/>
		<path fill="#D16E32" d="M161.967,263.468c1.264-1.084,2.629-2.172,4.264-2.494c2.502-0.492,5.106,1.033,6.423,3.217
			c1.317,2.186,1.529,4.881,1.207,7.412c-1.156,9.076-8.347,16.029-15.108,22.193c-1.98,1.805-3.96,3.609-5.939,5.414
			c-1.997,1.82-4.089,3.697-6.68,4.465c-3.38,1.004-10.141,1.088-11.738-2.732c-1.638-3.92,3.001-9.055,5.021-11.885
			C146.033,279.792,153.303,270.903,161.967,263.468z"/>
		<path fill="#E2A567" d="M407.859,268.046c29.465,0.736,33.277,17.59,32.328,43.738c-0.951,26.148-13.787,134.066-26.623,148.328
			c-12.838,14.262-33.279,7.131-38.51,0.475c-5.229-6.656-6.656-141.672-4.277-162.115
			C373.154,278.028,388.842,267.571,407.859,268.046z"/>
		<path fill="#E2A567" d="M92.142,268.046c-29.467,0.736-33.279,17.59-32.329,43.738c0.951,26.148,13.787,134.066,26.623,148.328
			c12.836,14.262,33.279,7.131,38.508,0.475c5.23-6.656,6.656-141.672,4.279-162.115S111.157,267.571,92.142,268.046z"/>
		<path fill="#D78340" d="M99.239,298.819c-0.346-1.328-0.933-2.699-1.753-3.811c-0.381-0.518-0.79-1.047-1.238-1.531
			c-0.676-1.117-1.609-2-3.067-2.195c-0.122-0.016-0.233-0.01-0.351-0.016c-1.04-0.332-2.152-0.402-3.323-0.104
			c-2.856,0.73-4.263,3.098-5.286,5.615c-1.091,2.684-1.097,5.932-0.339,8.701c0.511,1.861,1.466,3.467,2.77,4.875
			c0.023,0.031,0.04,0.068,0.062,0.102c1.069,1.521,2.329,2.494,4.201,2.744c1.869,0.252,3.432-0.334,4.831-1.58
			c2.477-2.209,3.642-5.404,3.913-8.633C99.773,301.606,99.587,300.153,99.239,298.819z"/>
		<path fill="#D78340" d="M417.855,297.854c-0.168-2.443-1.232-4.781-3.48-5.99c-1.033-0.557-2.27-0.896-3.443-0.816
			c-1.293,0.088-2.59,0.424-3.686,1.146c-1.494,0.99-2.514,2.166-3.531,3.631c-1.516,2.184-2.189,4.834-2.398,7.449
			c-0.262,3.238,0.629,6.971,3.594,8.734c2.068,1.23,4.5,1,6.586,0.006c1.482-0.707,2.535-1.98,3.465-3.283
			c1.273-1.777,1.941-4.004,2.156-6.188c0.07-0.252,0.152-0.504,0.215-0.756C417.639,300.521,417.945,299.159,417.855,297.854z"/>
		<path fill="#ECC58B" d="M407.441,285.187c-0.537-1.133-1.262-2.189-2.023-3.182c-0.82-1.064-1.678-1.984-2.773-2.775
			c-0.529-0.383-2.633-1.854-3.051-0.666c-0.186,0.527,0.18,0.975,0.449,1.4c0.293,0.463,0.709,0.887,1.012,1.299
			c0.729,0.984,1.307,1.65,1.955,2.658c0.609,0.947,1.045,1.949,1.549,2.949c0.236,0.465,0.535,0.947,0.816,1.387
			c0.379,0.596,0.875,0.771,1.402,1.143c0.225,0.156,0.635,0.057,0.748-0.197c0.084-0.188,0.213-0.375,0.307-0.592
			c0.193-0.439,0.258-0.805,0.195-1.271C407.93,286.62,407.752,285.841,407.441,285.187z"/>
		<path fill="#ECC58B" d="M401.479,291.681c-0.064-0.152-0.119-0.277-0.236-0.402c-0.064-0.07-0.137-0.135-0.205-0.199
			c-0.281-0.27-0.566-0.539-0.85-0.813c-0.178-0.17-0.354-0.334-0.572-0.457c-0.164-0.088-0.326-0.178-0.488-0.268
			c-0.225-0.125-0.453-0.283-0.721-0.268c-0.068,0.004-0.141,0.029-0.209,0.025c-0.08-0.004-0.162-0.031-0.24-0.047
			c-0.109-0.021-0.219,0.07-0.186,0.186c0.02,0.076,0.057,0.156,0.066,0.234c0.006,0.045-0.006,0.104-0.008,0.158
			c-0.004,0.275,0.133,0.471,0.277,0.689c0.098,0.152,0.199,0.305,0.299,0.457c0.146,0.221,0.309,0.396,0.502,0.57
			c0.285,0.254,0.568,0.51,0.852,0.764c0.078,0.068,0.156,0.143,0.24,0.211c0.158,0.131,0.326,0.205,0.52,0.271
			c0.211,0.076,0.398,0.063,0.613,0.037c0.256-0.031,0.439-0.184,0.455-0.457c0.002-0.064,0.006-0.131,0.012-0.193
			C401.607,291.993,401.553,291.847,401.479,291.681z"/>
		<path fill="#ECC58B" d="M397.475,307.089c-0.568,0.143-1.145,0.086-1.701,0.25c-0.563,0.166-1.162,0.348-1.691,0.604
			c-1.055,0.512-2.063,1.197-3.021,1.871c-0.992,0.699-1.93,1.443-2.789,2.303c-0.441,0.441-0.766,0.963-1.092,1.494
			c-0.146,0.24-0.336,0.498-0.436,0.764c-0.105,0.275-0.098,0.574-0.1,0.867c-0.002,0.32,0.291,0.49,0.576,0.439
			c0.262-0.045,0.545-0.064,0.783-0.199c0.213-0.121,0.406-0.301,0.604-0.443c0.48-0.342,0.979-0.648,1.414-1.049
			c0.828-0.766,1.656-1.535,2.518-2.262c0.813-0.686,1.674-1.291,2.543-1.902c0.465-0.324,0.877-0.725,1.318-1.078
			c0.471-0.375,0.766-0.865,1.262-1.215C397.881,307.378,397.756,307.019,397.475,307.089z"/>
		<path fill="#ECC58B" d="M402.498,314.708c0.07-0.35-0.262-0.596-0.58-0.445c-0.088,0.041-0.174,0.084-0.264,0.125
			c-0.277,0.008-0.492,0.156-0.74,0.348c-0.197,0.15-0.422,0.291-0.6,0.467c-0.215,0.209-0.383,0.508-0.561,0.748
			c-0.15,0.205-0.299,0.41-0.449,0.613c-0.301,0.41-0.578,0.818-0.834,1.262c-0.143,0.246-0.313,0.494-0.406,0.766
			c-0.074,0.221-0.123,0.453-0.184,0.68c-0.123,0.438,0.367,0.803,0.756,0.584c0.205-0.117,0.42-0.223,0.615-0.35
			c0.24-0.158,0.438-0.385,0.645-0.584c0.363-0.355,0.693-0.723,1.018-1.117l0.48-0.586c0.191-0.23,0.439-0.469,0.588-0.727
			c0.125-0.217,0.207-0.469,0.307-0.695c0.125-0.285,0.211-0.529,0.15-0.797C402.459,314.901,402.479,314.806,402.498,314.708z"/>
		<path fill="#ECC58B" d="M418.107,333.095c-0.262-1.531-0.564-3.057-0.906-4.57c-0.65-2.873-1.379-6.01-3.002-8.5
			c-0.271-0.414-0.969-0.271-0.963,0.262c0.033,2.939,0.861,5.898,1.355,8.789c0.252,1.465,0.467,2.934,0.635,4.41
			c0.154,1.35,0.291,3.102,1.295,4.121c0.396,0.404,1.043,0.283,1.334-0.174C418.633,336.228,418.334,334.423,418.107,333.095z"/>
		<path fill="#ECC58B" d="M426.789,316.663c-0.092-0.436-0.148-0.893-0.354-1.289c-0.176-0.336-0.412-0.65-0.615-0.967
			c-0.457-0.721-1.016-1.367-1.553-2.033c-0.236-0.289-0.471-0.58-0.707-0.871c-0.115-0.145-0.227-0.301-0.355-0.432
			c-0.158-0.16-0.35-0.266-0.535-0.389c-0.293-0.195-1.107-1.029-1.453-0.574c-0.217,0.281-0.086,0.629-0.029,0.945
			c0.064,0.348,0.086,0.748,0.191,1.08c0.133,0.424,0.379,0.83,0.574,1.23l0.527,1.096c0.348,0.717,0.727,1.381,1.152,2.055
			c0.145,0.225,0.281,0.465,0.465,0.662c0.172,0.182,0.402,0.32,0.602,0.471c0.176,0.133,0.342,0.281,0.545,0.365
			c0.195,0.082,0.385,0.107,0.592,0.078c0.01,0,0.012,0,0.02-0.002c-0.002,0.006,0.01,0.01,0.059,0.014
			c0.32,0.027,0.568-0.207,0.697-0.471C426.814,317.356,426.855,316.987,426.789,316.663z"/>
		<path fill="#ECC58B" d="M431.492,298.696c-1.008-0.322-2.094-0.387-3.139-0.527c-0.477-0.064-0.969-0.012-1.449,0.004
			c-0.441,0.012-1.082,0.105-1.4,0.469c-0.043,0.012-0.082,0.025-0.121,0.039c-0.221,0.07-0.275,0.375-0.066,0.498
			c0.041,0.023,0.08,0.047,0.119,0.068c0.225,0.395,0.758,0.631,1.166,0.732c0.537,0.137,1.078,0.305,1.633,0.354
			c0.996,0.09,2.018,0.232,3.02,0.139c0.414-0.039,0.74-0.256,0.871-0.664c0.023-0.076,0.043-0.158,0.031-0.24
			C432.102,299.149,431.91,298.829,431.492,298.696z"/>
		<path fill="#ECC58B" d="M426.363,285.237c-0.021-0.225-0.047-0.451-0.086-0.674c-0.09-0.51-0.785-0.625-1.115-0.297
			c-0.125,0.123-0.256,0.238-0.389,0.35c-0.098,0.053-0.199,0.086-0.295,0.166c-0.086,0.07-0.172,0.139-0.258,0.213
			c-0.191,0.16-0.338,0.404-0.49,0.625c-0.234,0.275-0.496,0.533-0.699,0.832c-0.178,0.264-0.365,0.529-0.531,0.803
			c-0.154,0.254-0.313,0.504-0.463,0.76c-0.131,0.221-0.25,0.393-0.275,0.664c-0.006,0.084-0.01,0.166-0.018,0.248
			c-0.014,0.123,0.078,0.256,0.18,0.314c0.217,0.125,0.432,0.229,0.686,0.225c0.258-0.008,0.561-0.07,0.816-0.131
			c0.617-0.143,1.139-0.508,1.625-0.893c0.438-0.346,0.738-0.84,0.996-1.33c0.051-0.096,0.098-0.191,0.141-0.289
			c0.068-0.143,0.141-0.287,0.191-0.438c0.049-0.145,0.061-0.313,0.074-0.469c0.008-0.094,0.016-0.189,0.012-0.285
			C426.463,285.479,426.406,285.362,426.363,285.237z"/>
		<path fill="#ECC58B" d="M84.682,289.265c-0.042-0.268-0.188-0.555-0.275-0.811c-0.159-0.471-0.301-0.953-0.48-1.416
			c-0.421-1.088-0.899-2.15-1.484-3.154c-0.552-0.949-1.062-1.947-1.673-2.857c-0.318-0.473-0.711-0.924-1.085-1.352
			c-0.375-0.434-0.874-0.734-1.308-1.107c-0.396-0.344-0.965-0.016-0.863,0.502c0.111,0.561,0.127,1.145,0.316,1.682
			c0.179,0.51,0.375,1.027,0.598,1.516c0.466,1.025,1.139,1.992,1.707,2.965c0.564,0.969,1.226,1.859,1.928,2.734
			c0.34,0.424,0.717,0.82,1.078,1.227c0.18,0.201,0.358,0.471,0.57,0.637c0.186,0.148,0.416,0.246,0.621,0.369
			c0.154,0.096,0.372-0.023,0.365-0.207C84.689,289.751,84.718,289.501,84.682,289.265z"/>
		<path fill="#ECC58B" d="M89.127,284.505l-0.233-1.172c-0.048-0.234-0.102-0.432-0.205-0.652c-0.084-0.176-0.169-0.35-0.255-0.523
			c-0.169-0.348-0.338-0.697-0.507-1.045c-0.085-0.174-0.327-0.234-0.494-0.162c-0.195,0.086-0.257,0.268-0.229,0.467
			c0.056,0.396,0.112,0.793,0.167,1.189c0.027,0.197,0.052,0.396,0.083,0.596c0.028,0.186,0.103,0.35,0.176,0.521
			c0.147,0.357,0.295,0.713,0.442,1.07c0.077,0.186,0.153,0.371,0.23,0.553c0.085,0.207,0.238,0.328,0.4,0.473
			c0.15,0.131,0.402,0.088,0.458-0.121c0.053-0.203,0.118-0.398,0.083-0.609C89.212,284.894,89.166,284.698,89.127,284.505z"/>
		<path fill="#ECC58B" d="M79.525,300.558c-0.752-0.26-1.656,0.113-2.395,0.322c-0.8,0.229-1.554,0.566-2.304,0.924
			c-0.327,0.156-0.65,0.318-0.971,0.484c-0.403,0.213-0.743,0.482-1.087,0.779c-0.285,0.244-0.564,0.492-0.839,0.75
			c-0.331,0.305-0.543,0.609-0.728,1.018c-0.186,0.414,0.022,1.055,0.577,1.004c0.453-0.037,0.817-0.098,1.239-0.287
			c0.33-0.148,0.54-0.242,0.837-0.363c0.415-0.168,0.837-0.311,1.221-0.543c0.328-0.199,0.66-0.393,0.995-0.58
			c0.65-0.363,1.312-0.693,1.952-1.072c0.678-0.398,1.509-0.68,1.939-1.365C80.225,301.206,79.955,300.704,79.525,300.558z"/>
		<path fill="#ECC58B" d="M81.632,310.646c-0.435,0.271-0.875,0.537-1.303,0.82c-0.256,0.168-0.437,0.398-0.637,0.625l-0.568,0.646
			c-0.358,0.404-0.715,0.811-1.073,1.217c-0.195,0.221-0.423,0.436-0.58,0.689c-0.147,0.236-0.263,0.498-0.392,0.746
			c-0.223,0.424,0.255,1.02,0.706,0.705c0.211-0.146,0.425-0.291,0.634-0.441c0.247-0.178,0.432-0.406,0.631-0.633
			c0.368-0.418,0.737-0.836,1.105-1.252l0.536-0.609c0.194-0.219,0.431-0.439,0.574-0.691c0.267-0.475,0.47-0.998,0.699-1.49
			C82.061,310.772,81.856,310.505,81.632,310.646z"/>
		<path fill="#ECC58B" d="M89.847,332.843c-0.314-1.393-0.59-2.771-0.706-4.193c-0.115-1.428-0.123-2.869-0.063-4.297
			c0.029-0.713,0.085-1.426,0.174-2.133c0.106-0.844,0.068-1.555-0.017-2.398c-0.054-0.543-0.698-0.742-1.019-0.277
			c-0.472,0.682-0.836,1.277-1.021,2.09c-0.179,0.795-0.319,1.598-0.43,2.406c-0.218,1.586-0.271,3.162-0.17,4.762
			c0.099,1.576,0.279,3.217,0.681,4.748c0.207,0.785,0.568,1.541,0.914,2.273c0.34,0.725,0.698,1.137,1.329,1.617
			c0.25,0.189,0.707-0.002,0.759-0.311C90.511,335.731,90.16,334.222,89.847,332.843z"/>
		<path fill="#ECC58B" d="M101.325,321.437c-0.078-0.266-0.225-0.514-0.357-0.758c-0.173-0.32-0.348-0.643-0.52-0.963
			c-0.218-0.402-0.407-0.795-0.738-1.119c-0.255-0.248-0.509-0.498-0.764-0.748c-0.247-0.238-0.613-0.307-0.929-0.176
			c-0.293,0.125-0.545,0.443-0.523,0.779c0.024,0.344,0.046,0.689,0.069,1.031c0.018,0.271,0.048,0.523,0.144,0.775l0.203,0.527
			c0.13,0.338,0.26,0.68,0.391,1.018c0.097,0.254,0.181,0.545,0.321,0.773c0.162,0.266,0.386,0.424,0.619,0.617
			c0.397,0.324,0.86,0.469,1.36,0.256c0.46-0.195,0.753-0.635,0.765-1.137C101.373,322.026,101.406,321.716,101.325,321.437z"/>
		<path fill="#ECC58B" d="M116.66,311.196c-0.479-0.063-0.953-0.166-1.435-0.176c-0.549-0.008-1.094,0.002-1.642-0.041
			c-0.961-0.08-1.928-0.273-2.862-0.508c-2.316-0.578-4.303-1.838-6.465-2.77c-0.188-0.08-0.5,0.061-0.402,0.311
			c0.164,0.412,0.313,0.848,0.595,1.197c0.342,0.422,0.714,0.822,1.105,1.201c0.765,0.742,1.596,1.334,2.541,1.824
			c1.983,1.033,4.073,1.596,6.308,1.688c0.996,0.041,2.637-0.035,3.312-0.92C118.405,312.095,117.623,311.327,116.66,311.196z"/>
		<path fill="#ECC58B" d="M112.421,299.153c-0.01-0.313-0.154-0.648-0.503-0.703c-0.016-0.002-0.032-0.004-0.047-0.008
			c-0.52-0.266-1.179-0.064-1.729,0.041c-0.221,0.043-0.428,0.15-0.641,0.221c-0.23,0.074-0.462,0.135-0.698,0.184
			c-0.079,0.016-0.158,0.027-0.236,0.039c-0.052,0.006-0.103,0.012-0.153,0.014c-0.325,0.025-0.611,0.1-0.921,0.184
			c-0.217,0.061-0.436,0.092-0.645,0.178c-0.196,0.08-0.396,0.146-0.598,0.203c-0.441,0.121-0.534,0.643-0.255,0.963
			c0.143,0.164,0.292,0.322,0.454,0.465c0.296,0.262,0.603,0.387,0.967,0.533c0.699,0.281,1.357,0.217,2.085,0.111
			c0.556-0.08,1.255-0.205,1.722-0.529C111.875,300.591,112.582,299.976,112.421,299.153z"/>
		<path fill="#ECC58B" d="M107.513,279.407c-0.418,0.248-0.843,0.414-1.276,0.629c-0.541,0.271-0.878,0.754-1.257,1.211
			c-0.72,0.863-1.363,1.775-2.013,2.691c-0.592,0.834-1.245,1.648-1.719,2.555c-0.266,0.508-0.526,1.012-0.727,1.551
			c-0.084,0.229-0.208,0.467-0.238,0.705c-0.038,0.299,0.055,0.586,0.019,0.891c-0.025,0.205,0.218,0.275,0.365,0.211
			c0.245-0.109,0.43-0.098,0.677-0.166c0.24-0.068,0.435-0.268,0.627-0.416c0.454-0.352,0.861-0.717,1.268-1.119
			c0.791-0.783,1.43-1.715,2.108-2.596c0.629-0.818,1.271-1.623,1.833-2.488c0.335-0.514,0.753-1.023,0.859-1.639
			c0.084-0.484,0.116-0.955,0.231-1.436C108.374,279.56,107.913,279.173,107.513,279.407z"/>
		<path fill="#ECC58B" d="M170.74,75.026c-1.158-0.984-2.391-1.893-3.691-2.68c-1.282-0.773-2.695-1.551-4.129-2
			c-0.815-0.252-1.604-0.369-2.453-0.283c-0.827,0.084-1.413,0.271-2.105,0.709c-0.377,0.238-0.561,0.766-0.306,1.164
			c0.348,0.539,0.658,0.977,1.162,1.381c0.604,0.486,1.146,0.842,1.839,1.174c0.44,0.211,0.893,0.385,1.344,0.566
			c0.023,0.01,0.162,0.066,0.235,0.098c0.101,0.045,0.284,0.127,0.312,0.141c0.624,0.285,1.235,0.596,1.832,0.93
			c0.566,0.318,1.12,0.658,1.659,1.02c0.27,0.178,0.535,0.365,0.797,0.555c-0.008-0.006,0.197,0.146,0.285,0.211
			c0.067,0.055,0.275,0.217,0.302,0.238c0.587,0.477,1.125,1.023,1.783,1.4c0.367,0.209,0.759,0.484,1.166,0.602
			c0.348,0.104,0.72,0.115,1.079,0.154c0.692,0.08,1.302-0.658,1.296-1.297C173.129,77.349,172.017,76.11,170.74,75.026z"/>
		<path fill="#ECC58B" d="M170.427,84.825c-0.283-0.422-0.716-0.582-1.158-0.807c-0.513-0.262-1.018-0.441-1.572-0.598
			c-0.507-0.143-1.02-0.33-1.536-0.434c-0.299-0.061-0.61-0.08-0.912-0.117c-0.463-0.055-0.822,0.057-1.183,0.363
			c0.151-0.088,0.301-0.174,0.451-0.264c-0.41,0.068-0.939,0.076-1.299,0.295c-0.215,0.131-0.358,0.482-0.185,0.705
			c0.284,0.367,0.742,0.584,1.146,0.816c0.431,0.387,1.118,0.521,1.66,0.584c0.501,0.061,1.004,0.102,1.507,0.154
			c0.239,0.023,0.48,0.057,0.721,0.072c0.263,0.02,0.524-0.018,0.787-0.041c0.503-0.047,1.037-0.02,1.464-0.314
			C170.447,85.151,170.524,84.97,170.427,84.825z"/>
		<path fill="#ECC58B" d="M163.145,130.089c-1.21-0.354-2.563-0.025-3.741,0.303c-1.36,0.381-2.601,0.938-3.841,1.604
			c-2.695,1.447-5.3,3.055-7.909,4.648c-1.188,0.727-3.385,1.545-3.401,3.178c-0.016,1.613,1.903,1.555,2.933,0.941
			c2.712-1.617,5.322-3.451,7.933-5.225c1.326-0.902,2.706-1.713,4.052-2.582c1.293-0.832,2.823-1.348,4.053-2.26
			C163.448,130.532,163.44,130.171,163.145,130.089z"/>
		<g>
			<path fill="#ECC58B" d="M163.878,122.745c-0.005,0.002-0.008,0.002-0.013,0.004C163.729,122.804,163.486,122.972,163.878,122.745
				z"/>
			<path fill="#ECC58B" d="M165.364,119.876c-0.472-0.406-0.901-0.625-1.544-0.664c-0.253-0.016-0.507-0.02-0.759-0.018
				c-0.682,0.006-1.321,0.113-1.966,0.336c-0.639,0.219-1.25,0.467-1.794,0.871c-0.299,0.221-0.596,0.447-0.883,0.688
				c-0.405,0.34-0.646,0.717-0.745,1.191c-0.105,0.178-0.204,0.361-0.244,0.557c-0.15,0.74,0.314,1.303,1.045,1.375
				c0.153,0.014,0.32-0.01,0.487-0.041c0.134,0.031,0.267,0.063,0.427,0.057c0.306-0.01,0.417-0.051,0.656-0.135
				c0.234-0.086,0.474-0.162,0.715-0.23c0.479-0.137,0.931-0.305,1.401-0.465c0.587-0.203,1.206-0.355,1.748-0.672
				c-0.016,0.012-0.016,0.012-0.03,0.02c0.132-0.053,0.266-0.098,0.399-0.148c0.429-0.16,0.797-0.367,1.086-0.729
				c0.23-0.289,0.43-0.604,0.413-0.998C165.76,120.515,165.645,120.116,165.364,119.876z"/>
		</g>
		<path fill="#ECC58B" d="M342.093,140.696c-1.324-1.162-2.893-2.109-4.34-3.113c-1.473-1.02-2.992-1.973-4.507-2.932
			c-1.635-1.033-3.259-2.131-4.971-3.033c-1.255-0.658-3.557-1.82-4.811-0.631c-0.295,0.279-0.255,0.736,0,1.021
			c0.44,0.494,1.202,0.648,1.811,0.871c0.813,0.299,1.556,0.713,2.283,1.182c1.462,0.941,2.871,1.977,4.285,2.988
			c1.464,1.045,2.903,2.125,4.371,3.162c0.712,0.5,1.419,1.004,2.124,1.51c0.552,0.396,1.6,0.895,1.94,1.521
			c0.168,0.307-0.019,0.559,0.006,0.92c0.022,0.287,0.117,0.688,0.364,0.885c0.319,0.254,1.349,0.332,1.705,0.146
			c0.237-0.123,0.418-0.363,0.555-0.578C343.772,143.243,343.245,141.704,342.093,140.696z"/>
		<path fill="#ECC58B" d="M334.956,124.937c-0.294-0.488-0.699-0.881-1.266-1.031c-0.266-0.07-0.556-0.123-0.826-0.172
			c-0.646-0.119-1.314-0.105-1.97-0.176c-0.004,0-0.004,0-0.008-0.002c-0.262-0.045-0.525-0.086-0.79-0.111
			c-0.257-0.025-0.515-0.041-0.771-0.068c-0.035-0.004-0.069-0.008-0.104-0.014c-0.004,0,0,0-0.004,0
			c-0.227-0.041-0.485-0.096-0.708-0.102c-0.194-0.008-0.416-0.01-0.599,0.074c-0.045,0.016-0.054,0.02-0.064,0.027
			c-0.043,0-0.089,0.004-0.132,0.004c-0.977,0.025-1.35,1.129-0.758,1.828c0.051,0.059,0.101,0.117,0.149,0.176
			c-0.081-0.107-0.09-0.104-0.027,0.01c0.063,0.273,0.358,0.467,0.57,0.621c0.228,0.164,0.48,0.301,0.727,0.436
			c0.62,0.34,1.258,0.611,1.942,0.793c0.648,0.172,1.42,0.385,2.086,0.363c0.347-0.012,0.698-0.072,1.042-0.119
			c0.674-0.092,1.18-0.477,1.51-1.064C335.21,125.956,335.226,125.39,334.956,124.937z"/>
		<path fill="#ECC58B" d="M342.117,85.405c-1.775-0.771-3.676-0.721-5.572-0.563c-1.894,0.158-3.783,0.422-5.646,0.795
			c-3.519,0.707-7.349,1.652-10.004,4.197c-0.406,0.391-0.107,1.166,0.473,1.141c3.424-0.148,6.704-1.385,10.081-1.947
			c1.685-0.279,3.391-0.443,5.097-0.514c1.728-0.07,3.575,0.064,5.231-0.502C342.805,87.661,343.336,85.935,342.117,85.405z"/>
		<path fill="#ECC58B" d="M327.607,75.345c-0.593-0.23-1.4-0.119-2.032-0.074c-0.709,0.053-1.427,0.26-2.123,0.404
			c-0.663,0.137-1.304,0.377-1.949,0.586c-0.701,0.229-1.283,0.592-1.91,0.977c-0.476,0.293-0.256,0.984,0.277,1.018l1.023,0.063
			c0.396,0.025,0.76-0.041,1.147-0.109c0.667-0.117,1.349-0.205,2.001-0.396c0.68-0.201,1.399-0.355,2.046-0.648
			c0.578-0.262,1.316-0.521,1.733-1.008C328.073,75.86,327.958,75.481,327.607,75.345z"/>
	</g>
	<path fill="#334E96" d="M125.269,307.333c16.84-24.113,57.25-45.982,57.25-45.982h144.294c0,0,38.153,24.127,45.103,40.111
		c0,0-122.76,33.543-125.415,32.848C243.847,333.612,125.269,307.333,125.269,307.333z"/>
	<path fill="#333B7A" d="M181.331,280.604c0,0-6.656,9.746-2.376,13.072c4.279,3.328,9.507,4.756,13.786,4.994
		c4.279,0.236,45.64,12.361,50.394,14.023c4.754,1.664,12.004,4.029,12.004,4.029s35.774-15.914,44.568-17.342
		c8.795-1.424,18.78-4.277,19.968-5.467c1.188-1.188,3.564-11.41-2.614-15.449c-6.18-4.043-97.459-5.943-97.698-5.943
		S181.331,280.604,181.331,280.604z"/>
	<path fill="#22140B" d="M244.322,0.231c-14.291,0-25.364,4.158-32.142,8.811c-7.172,4.924-14.153,10.621-18.876,20.949
		c-2.778,6.076-3.376,10.826-5.489,17.611c-2.87,9.215-2.409,20.555-2.409,28.941c0,34.98-12.391,75.867-18.564,90.27
		c-6.172,14.404,136.22,11.162,136.22,11.162s0.314-51.51-0.713-87c-0.319-10.971-2.726-23.305-3.826-36.32
		c-0.742-8.797-1.637-20.133-10.413-32.654c-7.324-10.449-14.401-13.764-20.403-16.588C261.207,2.351,255.67,0.231,244.322,0.231z"
		/>
	<path fill="#E9BFA3" d="M262.414,324.071c0,0,25.395,4.254,35.095,10.336c9.698,6.08,39.141,38.361,36.894,43.166
		c-2.248,4.803-2.419,7.148-6.195,6.191c0,0-1.813,4.33-5.943,4.33c0,0-2.72,4.428-6.446,3.924c0,0-1.915,3.422-6.194,2.063
		c-4.279-1.363-16.557-29.363-22.547-33.744c-5.991-4.385-25.226-8.219-32.124-8.371c-6.898-0.154-10.617-21.305-8.3-21.102
		C248.968,331.065,262.414,324.071,262.414,324.071z"/>
	<path fill="#334E96" d="M152.508,293.374c-28.244-0.396-39.543,27.338-20.596,42.939c18.947,15.598,125.101,19.625,129.354,19.152
		c4.253-0.469,10.929-26.561,6.941-32.336C264.22,317.353,183.168,293.804,152.508,293.374z"/>
	<path fill="#E9BFA3" d="M236.397,331.534c0,0-24.772,7.025-33.743,14.137c-8.971,7.111-34.681,42.439-31.918,46.965
		c2.762,4.523,3.192,6.838,6.84,5.471c0,0,2.28,4.104,6.383,3.648c0,0,3.192,4.104,6.84,3.191c0,0,2.28,3.191,6.383,1.369
		c4.104-1.824,13.223-31.008,18.695-36.023c5.472-5.014,24.168-10.943,31.007-11.855c6.839-0.912,8.208-22.342,5.926-21.889
		C250.532,337.007,236.397,331.534,236.397,331.534z"/>
	<path fill="#B59CFA" d="M202.961,132.515c-26.147,4.754-34.705,13.787-40.885,22.818c-6.18,9.033-24.247,52.771-27.1,79.395
		c-2.852,26.623,36.607,43.262,45.641,46.59c9.033,3.328,131.689,3.328,131.689,3.328s35.181-15.213,44.213-34.705
		c9.033-19.492-29-96.033-40.41-105.543c-9.355-7.795-30.427-13.309-30.427-13.309l-47.066,3.801L202.961,132.515z"/>
	<path fill="#8269C7" d="M313.768,203.101c-0.268-1.473-0.729-2.932-1.126-4.375c-0.813-2.965-1.696-5.912-2.677-8.826
		c-0.97-2.871-1.966-5.756-3.206-8.521c-0.623-1.395-1.218-2.797-1.869-4.174c-0.353-0.746-0.697-1.492-1.077-2.227
		c-0.258-0.496-0.418-1.064-1.02-1.172c-0.28-0.049-0.485,0.076-0.593,0.338c-0.217,0.523,0.074,1.115,0.215,1.631
		c0.199,0.738,0.43,1.467,0.647,2.201c0.437,1.465,0.932,2.916,1.37,4.379c0.854,2.855,1.891,5.656,2.782,8.498
		c0.882,2.813,1.727,5.639,2.495,8.486c0.392,1.451,0.702,2.934,1.13,4.373c0.194,0.658,0.441,1.316,0.692,1.957
		c0.307,0.785,0.866,1.221,1.352,1.879c0.186,0.254,0.669,0.281,0.744-0.096c0.129-0.656,0.429-1.256,0.446-1.943
		C314.096,204.741,313.902,203.849,313.768,203.101z"/>
	<path fill="#E9BFA3" d="M228.87,109.218c0,0-7.366,23.297-25.908,23.297c0,0,11.818,23.77,42.725,23.293
		c30.907-0.475,39.997-24.719,39.997-24.719s-24.784-2.379-26.148-22.822L228.87,109.218z"/>
	<path fill="#334E96" d="M342.257,288.925c28.028-3.504,42.313,22.818,25.198,40.41c-17.117,17.59-122.181,33.277-126.459,33.277
		s-13.787-25.197-10.459-31.377C233.864,325.056,311.831,292.728,342.257,288.925z"/>
	<path fill="#DD9878" d="M262.246,117.581c-1.329-2.348-2.262-5.1-2.606-8.316c-1.082-0.326-2.171-0.623-3.265-0.898l-27.505,0.852
		c0,0-3.083,9.721-10.26,16.605c0.567,0.232,1.145,0.439,1.721,0.607c8.766,2.561,20.637,4.123,29.042,0.557
		C255.049,124.579,259.5,121.937,262.246,117.581z"/>
	<path fill="#E9BFA3" d="M206.962,61.884c0,0-9.257-0.516-9.257,10.285c0,10.805,9.257,11.316,9.257,11.316
		s10.808,39.113,37.035,39.607c27.261,0.514,34.792-39.309,34.792-39.309s9.558-2.789,8.929-12.127
		c-0.627-9.338-8.216-8.791-8.216-8.791s-6.649-24.539-34.991-32.875C244.511,29.991,222.542,33.663,206.962,61.884z"/>
	<path fill="#DD9878" d="M205.801,70.062c-0.244-0.84-0.543-1.73-1.071-2.436c-0.536-0.715-1.322-1.242-2.247-1.125
		c-0.843,0.107-1.592,0.691-1.585,1.596c0.006,0.654,1.022,0.83,1.169,0.158c0.054-0.238,0.285-0.383,0.505-0.41
		c0.323-0.039,0.565,0.1,0.795,0.404c0.296,0.395,0.451,0.887,0.591,1.355c0.086,0.283,0.129,0.578,0.194,0.871
		c-0.379-0.111-0.793-0.084-1.182,0.152c-0.702,0.424-1.096,1.248-1.22,2.033c-0.156,0.994-0.022,2.094,0.969,2.604
		c0.732,0.377,1.678,0.273,2.35-0.191c0.779-0.539,1.107-1.449,1.148-2.367C206.256,71.821,206.045,70.903,205.801,70.062z"/>
	<path fill="#DD9878" d="M281.056,73.265c0.055-0.533,0.188-1.068,0.384-1.568c0.243-0.627,0.588-1.221,0.946-1.787
		c0.075-0.121,0.147-0.244,0.23-0.357c0.053-0.074,0.177-0.18,0.213-0.254c0.005-0.01,0.007-0.01,0.012-0.018
		c0.453,0.529,1.35,0.309,1.376-0.453c0.041-1.211-1.453-1.576-2.323-1.041c-0.421,0.262-0.708,0.688-0.973,1.092
		c-0.305,0.461-0.593,0.938-0.838,1.434c-0.919,1.846-1.279,3.961-0.355,5.879c0.415,0.863,1.223,1.828,2.271,1.758
		c1.021-0.066,1.66-1.014,1.938-1.91c0.282-0.914,0.277-2.072-0.489-2.75C282.761,72.679,281.761,72.761,281.056,73.265z"/>
	<path fill="#FFFFFF" d="M285.389,130.946c-1.54,2.617-2.87,5.283-4.692,7.732c-1.748,2.357-3.781,4.518-5.982,6.459
		c-4.589,4.049-10.068,7.051-15.953,8.732c-6.425,1.836-13.24,2.125-19.798,0.85c-3.465-0.674-6.804-1.795-10.061-3.143
		c-3.344-1.383-6.692-2.777-9.831-4.592c-3.108-1.799-6.141-3.895-8.751-6.371c-2.61-2.475-4.822-5.227-7.063-8.025
		c-0.399-0.496-1.122,0.137-0.85,0.654c3.049,5.793,8.183,10.627,13.435,14.41c3.028,2.182,6.445,3.904,9.813,5.488
		c3.408,1.604,6.87,3.078,10.524,4.037c13.409,3.516,28.04,0.248,38.871-8.303c2.768-2.184,5.268-4.701,7.439-7.479
		c2.196-2.809,4.381-5.941,5.541-9.338C288.569,130.485,286.206,129.558,285.389,130.946z"/>
	<path fill="#A94E56" d="M185.375,173.356c-0.041-0.398-0.524-0.555-0.759-0.205c-0.623,0.93-1.011,2.078-1.372,3.133
		c-0.374,1.094-0.815,2.18-1.137,3.289c-0.684,2.35-1.359,4.689-1.958,7.063c-0.582,2.309-1.163,4.617-1.745,6.924
		c-0.283,1.123-0.597,2.242-0.826,3.375c-0.12,0.594-0.284,1.277-0.246,1.887c0.036,0.559,0.287,1.096,0.473,1.617
		c0.115,0.324,0.491,0.436,0.751,0.197c0.396-0.359,0.866-0.713,1.16-1.168c0.294-0.457,0.463-1.061,0.622-1.572
		c0.344-1.104,0.587-2.242,0.865-3.363c0.586-2.373,1.172-4.746,1.759-7.119c0.572-2.316,1.064-4.641,1.553-6.977
		c0.238-1.141,0.355-2.301,0.55-3.451C185.266,175.813,185.492,174.546,185.375,173.356z"/>
	<path fill="#22140B" d="M175.425,141.161c0,0-8.606,35.373-5.241,54.018H228.4c0,0-0.564-5.635-5.858-28.047
		c-5.293-22.412-11.33-28.563-8.518-42.904c2.811-14.344-1.776-25.764-4.418-33.252c0,0-7.363-21.518-2.644-29.092
		c4.721-7.576-9.252-12.357-9.252-12.357"/>
	<path fill="#251813" stroke="#22140B" stroke-miterlimit="10" d="M302.35,136.751c0,0-4.782,40.943,5.804,57.174l-17.911,0.244
		c0,0-8.539-20.373-8.539-35.479c0-12.559-2.451-28.826-7.734-36.336"/>
	<path fill="#8269C7" d="M329.367,226.632c-2.042,0.828-3.657,2.557-5.125,4.166c-1.649,1.811-3.272,3.641-4.895,5.475
		c-1.578,1.789-3.169,3.564-4.72,5.377c-0.745,0.869-1.484,1.766-2.117,2.723c-0.431,0.65-0.862,1.674-1.128,2.014
		c-0.172,0.219-0.138,0.568,0.172,0.65c1.914,0.502,3.524-1.428,4.69-2.68c1.712-1.838,3.332-3.764,4.985-5.654
		c1.613-1.846,3.225-3.691,4.811-5.561c1.503-1.773,3.242-3.711,3.835-6C329.947,226.864,329.675,226.509,329.367,226.632z"/>
	<path fill="#8269C7" d="M179.886,245.661c-0.488-1.113-1.356-2.039-2.108-2.984c-0.762-0.957-1.532-1.879-2.367-2.777
		c-1.691-1.82-3.437-3.59-5.179-5.355c-0.851-0.867-1.722-1.711-2.584-2.564c-0.87-0.861-1.847-1.561-2.733-2.412
		c-0.486-0.467-1.374-1.752-2.161-1.607c-0.477,0.086-0.689,0.572-0.446,0.971c0.053,0.086,0.18,0.064,0.211-0.027
		c-0.021,0.064,0.544,0.623,0.625,0.719c0.339,0.396,0.68,0.791,1.018,1.188c0.688,0.809,1.222,1.689,1.925,2.484
		c1.38,1.563,2.764,3.115,4.169,4.654c1.365,1.494,2.73,2.984,4.141,4.434c0.729,0.75,1.525,1.41,2.296,2.115
		c0.759,0.693,1.539,1.43,2.461,1.896C179.659,246.649,180.098,246.146,179.886,245.661z"/>
	<path fill="#DCEAF2" d="M161.682,205.563l15.195,78.893c0.792,4.113,4.39,7.084,8.576,7.084h125.442
		c4.456,0,8.196-3.355,8.681-7.783l8.775-80.148c0.57-5.199-3.525-9.729-8.754-9.684l-149.413,1.254
		C164.729,195.226,160.651,200.208,161.682,205.563z"/>
	<path fill="#FDFAF5" d="M259.354,240.562c-0.59-2.1-1.651-3.922-3.185-5.467c-0.836-0.645-1.671-1.291-2.507-1.934
		c-1.931-1.121-4.013-1.686-6.249-1.693c-1.706-0.063-3.296,0.293-4.771,1.066c-1.536,0.502-2.864,1.354-3.984,2.561
		c-1.208,1.121-2.062,2.451-2.561,3.986c-0.776,1.475-1.132,3.066-1.067,4.77c0.147,1.1,0.296,2.195,0.443,3.293
		c0.586,2.098,1.648,3.918,3.185,5.463c0.834,0.646,1.671,1.291,2.505,1.936c1.932,1.121,4.015,1.686,6.251,1.691
		c1.705,0.064,3.294-0.291,4.768-1.066c1.536-0.498,2.865-1.352,3.987-2.561c1.206-1.121,2.06-2.447,2.56-3.984
		c0.775-1.475,1.13-3.066,1.066-4.771C259.648,242.755,259.5,241.655,259.354,240.562z"/>
	<path fill="#333861" d="M363.926,330.284c-1.027,1.195-2.464,2.191-3.759,3.098c-1.364,0.957-2.885,1.699-4.431,2.32
		c-3.724,1.5-7.59,2.611-11.445,3.709c-8.174,2.326-16.395,4.418-24.647,6.447c-8.497,2.092-16.995,4.184-25.491,6.281
		c-8.262,2.041-16.532,4.061-24.885,5.697c-8.972,1.758-18.033,2.834-27.071,4.146c-0.04-0.072-0.066-0.146-0.129-0.215
		c-5.299-5.814-9.106-12.92-10.976-20.563c-0.473-1.93-0.947-3.947-0.877-5.945c0.069-1.965,0.956-3.553,2.418-4.824
		c1.296-1.129,2.863-1.924,4.386-2.691c2.029-1.023,4.064-2.033,6.103-3.037c16.193-7.977,32.585-15.713,49.661-21.629
		c4.714-1.635,9.463-3.164,14.248-4.572c2.363-0.697,4.729-1.389,7.101-2.057c2.389-0.67,4.814-1.275,6.982-2.516
		c0.043-0.023,0.021-0.088-0.025-0.088c-2.267-0.123-4.467,0.373-6.662,0.893c-2.277,0.541-4.548,1.121-6.8,1.754
		c-4.505,1.27-8.982,2.637-13.416,4.131c-8.723,2.936-17.334,6.258-25.748,9.992c-4.464,1.98-8.903,4.021-13.323,6.107
		c-1.828-1.158-3.939-1.844-5.941-2.629c-2.3-0.902-4.582-1.848-6.871-2.773c-4.688-1.896-9.342-3.738-14.247-4.975
		c-10.363-2.611-20.228-5.141-29.846-7.396c-2.734-0.639-5.499-1.141-8.252-1.689c-2.748-0.549-5.646-1.414-8.457-1.396
		c-0.42,0.004-0.661,0.658-0.23,0.852c2.228,0.994,4.746,1.375,7.11,1.951c2.476,0.6,4.948,1.213,7.419,1.84
		c5.002,1.268,10.008,2.527,15,3.834c9.771,2.555,19.751,4.779,29.218,8.34c2.539,0.953,5.059,1.963,7.592,2.934
		c1.86,0.715,3.792,1.559,5.782,1.938c-3.605,1.713-7.205,3.436-10.784,5.195c-2.153,1.059-4.3,2.123-6.442,3.203
		c-1.577,0.793-3.139,1.621-4.522,2.727c-1.377,1.102-2.504,2.5-3.048,4.193c-0.642,1.998-0.379,4.154-0.011,6.176
		c1.639,8.979,5.898,17.412,12.018,24.164c0.496,0.549,1.158,0.32,1.495-0.146c8.323,0.496,16.687-0.717,24.855-2.205
		c8.561-1.563,17.03-3.564,25.482-5.627c8.67-2.115,17.337-4.258,26.005-6.393c8.388-2.064,16.802-4.053,25.093-6.494
		c4.39-1.291,8.827-2.816,13.04-4.607c1.714-0.73,3.383-1.57,4.885-2.68c0.746-0.549,1.5-1.158,2.016-1.941
		c0.48-0.723,0.816-1.621,1.119-2.432C364.762,330.302,364.188,329.976,363.926,330.284z"/>
	<path fill="#333861" d="M195.937,350.413c-0.855-0.637-1.879-0.742-2.917-0.873c-1.24-0.154-2.481-0.303-3.722-0.451
		c-2.266-0.275-4.532-0.557-6.798-0.832c-4.423-0.543-8.842-1.127-13.239-1.852c-8.873-1.457-17.689-3.486-26.116-6.658
		c-2.352-0.883-4.668-1.867-6.916-2.994c-2.239-1.123-4.349-2.463-6.479-3.777c-0.404-0.248-0.854,0.328-0.508,0.66
		c3.208,3.07,7.407,5.131,11.435,6.908c4.102,1.811,8.341,3.281,12.648,4.516c8.824,2.527,17.953,3.906,27.035,5.109
		c2.611,0.348,5.225,0.664,7.839,0.98c1.359,0.162,2.717,0.324,4.076,0.488c1.268,0.154,2.459,0.354,3.662-0.154
		C196.415,351.282,196.257,350.653,195.937,350.413z"/>
	<g>
		<path fill="#DD9878" d="M202.471,354.267c-0.001,0.008-0.001,0.016-0.002,0.025c0.044-0.164,0.033-0.164,0.018-0.107
			c0,0-0.001,0.002-0.001,0.004C202.481,354.214,202.477,354.241,202.471,354.267z"/>
		<path fill="#DD9878" d="M204.957,350.882c-0.101-0.314-0.364-0.51-0.691-0.525c-0.036-0.004-0.072-0.006-0.108-0.008
			c-0.007,0-0.003,0-0.008,0c-0.152-0.035-0.313-0.035-0.513-0.006c-0.118,0.02-0.234,0.043-0.35,0.072
			c-0.273,0.076-0.539,0.182-0.783,0.324c-0.537,0.322-0.965,0.73-1.329,1.232c-0.312,0.428-0.542,0.932-0.683,1.439
			c-0.081,0.291-0.132,0.604-0.151,0.902c-0.006,0.111-0.001,0.221,0.008,0.33c0.015,0.229,0.068,0.381,0.146,0.584
			c-0.127-0.324-0.047-0.064-0.021,0.008c0.169,0.473,0.676,0.877,1.208,0.688c0.1-0.035,0.199-0.074,0.295-0.121
			c0.223-0.174,0.257-0.199,0.104-0.076c0.084-0.035,0.158-0.088,0.223-0.156c0.023-0.029,0.045-0.059,0.068-0.09
			c0.02-0.014,0.042-0.018,0.06-0.029c0.076-0.057,0.124-0.117,0.204-0.154c0.219-0.105,0.186-0.424,0-0.535
			c-0.075-0.047-0.134-0.109-0.196-0.172c0-0.008,0.006-0.018,0.007-0.025c0.004-0.092,0.013-0.182,0.021-0.271
			c-0.003,0.014-0.003,0.018-0.007,0.033c0.004-0.02,0.006-0.039,0.009-0.059c0-0.002,0-0.006,0-0.006
			c0.004-0.027,0.011-0.055,0.016-0.076c0.019-0.098,0.043-0.193,0.07-0.289c0.028-0.096,0.06-0.189,0.096-0.285
			c0.019-0.035,0.038-0.074,0.04-0.078c0.09-0.178,0.197-0.348,0.313-0.512c0.013-0.02,0.029-0.037,0.044-0.055
			c0.07-0.088,0.14-0.172,0.215-0.256c0.062-0.068,0.127-0.133,0.192-0.197c0.041-0.037,0.082-0.072,0.123-0.107
			c0.004-0.004,0.008-0.008,0.013-0.01c-0.017,0.01-0.021,0.014-0.043,0.027c0.121-0.074,0.231-0.172,0.342-0.26
			c0.007-0.004,0,0,0.013-0.008c0.037-0.023,0.074-0.053,0.113-0.076c0.083-0.055,0.169-0.104,0.257-0.152
			c0.095-0.049,0.164-0.115,0.234-0.18c0.008-0.004,0.006-0.002,0.023-0.012c0.031-0.016,0.063-0.029,0.095-0.045
			C204.901,351.565,205.046,351.159,204.957,350.882z"/>
		<path fill="#DD9878" d="M203.592,352.396C203.736,352.308,203.649,352.349,203.592,352.396L203.592,352.396z"/>
	</g>
	<path fill="#6D3D33" d="M232.658,61.218c-0.708-1.039-1.972-1.629-3.137-2.029c-1.077-0.369-2.215-0.451-3.334-0.258
		c-0.935,0.162-1.992,0.607-2.657,1.305c-0.328,0.346-0.616,0.754-0.815,1.189c-0.214,0.465-0.248,0.934,0.016,1.387
		c0.173,0.297,0.492,0.58,0.861,0.553c0.527-0.037,0.875-0.199,1.236-0.582c0.063-0.066,0.131-0.131,0.199-0.191
		c0.012-0.012,0.067-0.053,0.1-0.076c0.047-0.027,0.097-0.061,0.109-0.07c0.063-0.039,0.126-0.076,0.187-0.115
		c0.143-0.092,0.282-0.184,0.432-0.262c0.061-0.031,0.123-0.059,0.185-0.09c0.013-0.004,0.004,0,0.042-0.012
		c0.182-0.057,0.36-0.113,0.548-0.152c0.016-0.004,0.092-0.021,0.153-0.031c0.022,0,0.034,0,0.078-0.002
		c0.169-0.012,0.339-0.016,0.51-0.008c0.059,0.002,0.117,0.008,0.176,0.014c0.035,0.002,0.09,0.008,0.142,0.018
		c0.198,0.037,0.395,0.086,0.587,0.143c0.086,0.027,0.17,0.053,0.255,0.084c0.018,0.004,0.124,0.047,0.191,0.07
		c0.047,0.02,0.119,0.051,0.133,0.057c0.103,0.049,0.202,0.1,0.303,0.152c0.179,0.096,0.356,0.197,0.529,0.305
		c0.454,0.283,0.828,0.541,1.35,0.713C232.189,63.708,233.36,62.245,232.658,61.218z"/>
	<path fill="#6D3D33" d="M231.655,74.565c-0.047-0.807-0.165-1.604-0.283-2.4c-0.097-0.41-0.285-0.768-0.563-1.068
		c-0.221-0.342-0.515-0.611-0.88-0.811c-0.25-0.104-0.502-0.209-0.751-0.314c-0.416-0.131-0.834-0.152-1.251-0.057
		c-0.284,0-0.548,0.07-0.793,0.215c-0.39,0.125-0.727,0.342-1.011,0.648c-0.162,0.213-0.326,0.422-0.49,0.635
		c-0.284,0.49-0.427,1.018-0.43,1.584l-0.076,1.484l-0.037,0.721c-0.01,0.189,0.016,0.283,0.049,0.52
		c0.025,0.199,0.038,0.363,0.089,0.545c0.034,0.121,0.072,0.24,0.109,0.361c-0.001-0.012-0.002-0.018-0.004-0.027
		c0.048,0.27,0.131,0.527,0.283,0.768c0.286,0.488,0.801,0.941,1.353,1.168c0.264,0.176,0.544,0.322,0.86,0.412
		c0.398,0.125,0.798,0.143,1.196,0.053c0.398-0.018,0.771-0.137,1.115-0.355c0.451-0.266,0.81-0.627,1.075-1.074
		c0.093-0.127,0.155-0.268,0.192-0.42c0.082-0.125,0.136-0.26,0.161-0.404c0.014-0.059,0.024-0.121,0.036-0.184
		c0.086-0.467,0.123-0.742,0.1-1.15C231.688,75.128,231.671,74.849,231.655,74.565z"/>
	<path fill="#6D3D33" d="M257.423,63.327c0.521-0.172,0.895-0.43,1.35-0.713c0.172-0.107,0.351-0.209,0.528-0.305
		c0.101-0.053,0.203-0.104,0.304-0.152c0.013-0.006,0.085-0.037,0.133-0.057c0.066-0.023,0.174-0.066,0.191-0.07
		c0.085-0.031,0.169-0.057,0.255-0.084c0.192-0.057,0.39-0.105,0.587-0.143c0.052-0.01,0.105-0.016,0.141-0.018
		c0.059-0.006,0.119-0.012,0.178-0.014c0.171-0.008,0.34-0.004,0.509,0.008c0.046,0.002,0.056,0.002,0.079,0.002
		c0.061,0.01,0.137,0.027,0.152,0.031c0.188,0.039,0.366,0.096,0.549,0.152c0.038,0.012,0.027,0.008,0.041,0.012
		c0.061,0.031,0.123,0.059,0.184,0.09c0.15,0.078,0.291,0.17,0.432,0.262c0.062,0.039,0.125,0.076,0.187,0.115
		c0.014,0.01,0.065,0.043,0.109,0.07c0.034,0.023,0.089,0.064,0.1,0.076c0.068,0.061,0.136,0.125,0.2,0.191
		c0.361,0.383,0.71,0.545,1.235,0.582c0.37,0.027,0.689-0.256,0.862-0.553c0.264-0.453,0.229-0.922,0.015-1.387
		c-0.198-0.436-0.486-0.844-0.815-1.189c-0.664-0.697-1.721-1.143-2.656-1.305c-1.117-0.193-2.257-0.111-3.334,0.258
		c-1.165,0.4-2.429,0.99-3.138,2.029C255.099,62.245,256.269,63.708,257.423,63.327z"/>
	<path fill="#6D3D33" d="M256.752,75.413c-0.024,0.408,0.014,0.684,0.099,1.15c0.012,0.063,0.022,0.125,0.039,0.184
		c0.022,0.145,0.078,0.279,0.159,0.404c0.037,0.152,0.1,0.293,0.192,0.42c0.265,0.447,0.624,0.809,1.074,1.074
		c0.346,0.219,0.718,0.338,1.117,0.355c0.396,0.09,0.796,0.072,1.196-0.053c0.314-0.09,0.596-0.236,0.859-0.412
		c0.552-0.227,1.067-0.68,1.352-1.168c0.153-0.24,0.236-0.498,0.284-0.768c-0.001,0.01-0.003,0.016-0.003,0.027
		c0.035-0.121,0.074-0.24,0.107-0.361c0.053-0.182,0.063-0.346,0.091-0.545c0.032-0.236,0.057-0.33,0.047-0.52l-0.036-0.721
		l-0.077-1.484c-0.002-0.566-0.145-1.094-0.428-1.584c-0.164-0.213-0.328-0.422-0.491-0.635c-0.285-0.307-0.62-0.523-1.012-0.648
		c-0.245-0.145-0.509-0.215-0.791-0.215c-0.418-0.096-0.835-0.074-1.253,0.057c-0.248,0.105-0.5,0.211-0.75,0.314
		c-0.366,0.199-0.66,0.469-0.88,0.811c-0.277,0.301-0.467,0.658-0.563,1.068c-0.118,0.797-0.236,1.594-0.283,2.4
		C256.785,74.849,256.769,75.128,256.752,75.413z"/>
	<g>
		<path fill="#DD9878" d="M247.2,91.423c-0.402,0.094-0.769,0.297-1.073,0.574c0.031-0.025,0.064-0.051,0.083-0.061
			c-0.049,0.023-0.092,0.066-0.135,0.094c-0.103,0.064-0.209,0.127-0.317,0.184c-0.007,0.002-0.007,0.002-0.014,0.004
			c0.023-0.008,0.048-0.018,0.071-0.021c-0.034,0.008-0.067,0.021-0.101,0.039c-0.048,0.021-0.052,0.021-0.023,0.008
			c-0.01,0.004-0.019,0.006-0.028,0.008c-0.115,0.041-0.233,0.072-0.352,0.1c-0.022,0.004-0.079,0.012-0.105,0.016
			c-0.121,0.008-0.242,0.008-0.364,0c-0.044,0-0.223-0.033-0.038,0.004c0.215,0.041-0.118-0.014-0.233-0.029
			c-0.006-0.002-0.001-0.002-0.011-0.004c-0.053-0.01-0.106-0.02-0.158-0.033c-0.118-0.025-0.233-0.061-0.348-0.1
			c-0.012-0.006-0.043-0.021-0.07-0.029c-0.034-0.018-0.07-0.035-0.081-0.039c-0.108-0.059-0.212-0.119-0.312-0.188
			c-0.007-0.004-0.035-0.023-0.06-0.039c-0.022-0.021-0.061-0.051-0.067-0.057c-0.231-0.191-0.428-0.295-0.73-0.328
			c-0.008,0-0.028,0-0.05-0.002c-0.033-0.006-0.081-0.012-0.084-0.014c-0.288-0.057-0.537,0.08-0.635,0.361
			c-0.137,0.387-0.151,0.771,0.07,1.135c0.164,0.271,0.385,0.533,0.615,0.75c0.507,0.484,1.169,0.906,1.863,1.035
			c0.729,0.141,1.488,0.125,2.197-0.105c0.856-0.279,1.813-0.787,1.997-1.754C248.883,92.005,248.156,91.196,247.2,91.423z"/>
		<path fill="#DD9878" d="M245.025,91.522c-0.022,0.008-0.039,0.016-0.054,0.023c0.008-0.002,0.016-0.004,0.023-0.008
			C245.003,91.532,245.01,91.53,245.025,91.522z"/>
	</g>
	<path fill="#FFFFFF" stroke="#A14041" stroke-miterlimit="10" d="M254.333,102.935c0.006-0.037,0.01-0.076,0.01-0.113
		c0.035-0.779-0.927-1.389-2.116-1.596c-0.859-0.256-1.852-0.348-2.797-0.18c-0.692,0.125-1.335,0.303-1.967,0.508
		c-0.117,0.039-0.24,0.074-0.362,0.109c-0.558,0.117-1.14,0.201-1.726,0.268c-0.511,0.027-1.021,0.041-1.537,0.023
		c-0.122-0.016-0.245-0.027-0.366-0.045c-0.32-0.045-0.638-0.104-0.95-0.17c-0.602-0.127-1.238-0.207-1.856-0.301
		c-0.471-0.072-0.966-0.084-1.449-0.102c-0.021,0-0.018,0.002-0.032,0c-0.144-0.014-0.309-0.041-0.376-0.051
		c-1.153-0.156-2.566,0.332-2.472,1.123c0.048,0.402,0.126,0.826,0.316,1.217c0.28,0.582,0.924,1.047,1.6,1.49
		c1.164,0.766,3.128,1.227,4.791,1.438c1.838,0.236,3.718,0.279,5.545-0.012c0.875-0.141,1.729-0.361,2.546-0.59
		c0.295-0.084,0.604-0.174,0.878-0.281c0.827-0.324,1.306-0.688,1.896-1.15C254.49,104.063,254.523,103.483,254.333,102.935z"/>
	<path fill="#D7826F" d="M273.829,86.28c-0.39-1.555-1.734-2.787-3.275-3.178c-0.382-0.162-0.774-0.301-1.172-0.383
		c-0.693-0.141-1.428-0.246-2.136-0.18c-0.468,0.043-0.944,0.098-1.402,0.203c-0.485,0.115-0.936,0.324-1.39,0.521
		c-0.632,0.273-1.254,0.688-1.721,1.193c-0.431,0.469-0.702,0.871-0.938,1.434c-0.229,0.543-0.394,1.113-0.339,1.719
		c0.047,0.514,0.124,0.896,0.317,1.359c0.194,0.459,0.405,0.766,0.732,1.156c0.312,0.377,0.729,0.666,1.141,0.922
		c1.211,0.756,2.729,1.031,4.136,0.994c0.745-0.021,1.488-0.135,2.226-0.24c0.688-0.1,1.379-0.311,1.962-0.707
		c0.866-0.592,1.545-1.365,1.827-2.395C274.013,87.909,274.027,87.075,273.829,86.28z"/>
	<path fill="#D7826F" d="M226.407,86.28c-0.39-1.555-1.733-2.787-3.275-3.178c-0.382-0.162-0.772-0.301-1.172-0.383
		c-0.693-0.141-1.427-0.246-2.136-0.18c-0.467,0.043-0.944,0.098-1.402,0.203c-0.483,0.115-0.936,0.324-1.389,0.521
		c-0.633,0.273-1.254,0.688-1.722,1.193c-0.432,0.469-0.702,0.871-0.939,1.434c-0.229,0.543-0.392,1.113-0.338,1.719
		c0.047,0.514,0.123,0.896,0.318,1.359c0.193,0.459,0.405,0.766,0.731,1.156c0.313,0.377,0.729,0.666,1.141,0.922
		c1.211,0.756,2.729,1.031,4.138,0.994c0.744-0.021,1.487-0.135,2.224-0.24c0.69-0.1,1.378-0.311,1.962-0.707
		c0.868-0.592,1.546-1.365,1.828-2.395C226.592,87.909,226.606,87.075,226.407,86.28z"/>
</g>
</svg>
